<svg width="32" height="32" viewBox="0 0 32 32" fill="none" xmlns="http://www.w3.org/2000/svg">
<path d="M27.3125 0H4.6875C2.10281 0 0 2.10281 0 4.6875V27.3125C0 29.8972 2.10281 32 4.6875 32H27.3125C29.8972 32 32 29.8972 32 27.3125V4.6875C32 2.10281 29.8972 0 27.3125 0ZM18.8125 19.6875V30.125H16.9375V19.6875C16.9375 19.1698 16.5177 18.75 16 18.75H13.1875V16.875H16C16.5177 16.875 16.9375 16.4552 16.9375 15.9375V12.1875C16.9375 9.60281 19.0403 7.5 21.625 7.5H24.4375V9.375H21.625C20.0742 9.375 18.8125 10.6367 18.8125 12.1875V15.9375C18.8125 16.4552 19.2323 16.875 19.75 16.875H24.1742L23.7055 18.75H19.75C19.2323 18.75 18.8125 19.1698 18.8125 19.6875ZM30.125 27.3125C30.125 28.8633 28.8633 30.125 27.3125 30.125H20.6875V20.625H24.4375C24.8677 20.625 25.2427 20.3322 25.347 19.9149L26.2845 16.1649C26.4325 15.5731 25.9838 15 25.375 15H20.6875V12.1875C20.6875 11.6706 21.1081 11.25 21.625 11.25H25.375C25.8927 11.25 26.3125 10.8302 26.3125 10.3125V6.5625C26.3125 6.04475 25.8927 5.625 25.375 5.625H21.625C18.0064 5.625 15.0625 8.56894 15.0625 12.1875V15H12.25C11.7323 15 11.3125 15.4198 11.3125 15.9375V19.6875C11.3125 20.2052 11.7323 20.6187 12.25 20.6187H15.0625V30.125H4.6875C3.13669 30.125 1.875 28.8633 1.875 27.3125V4.6875C1.875 3.13669 3.13669 1.875 4.6875 1.875H27.3125C28.8633 1.875 30.125 3.13669 30.125 4.6875V27.3125Z" fill="#373737"/>
</svg>
