<svg width="32" height="22" viewBox="0 0 32 22" fill="none" xmlns="http://www.w3.org/2000/svg">
<path d="M0.999977 1.99995H31C31.552 1.99995 32 1.55192 32 0.999976C32 0.447953 31.552 0 31 0H0.999977C0.448036 0 0 0.447953 0 0.999976C0 1.552 0.448036 1.99995 0.999977 1.99995Z" fill="#373737"/>
<path d="M31 10H0.999977C0.447953 10 0 10.448 0 11C0 11.5519 0.448036 12 0.999977 12H31C31.552 12 32 11.5519 32 11C32 10.448 31.552 10 31 10Z" fill="#373737"/>
<path d="M31 20H0.999977C0.447953 20 0 20.448 0 21C0 21.552 0.448036 22 0.999977 22H31C31.552 22 32 21.5519 32 21C32.0001 20.448 31.552 20 31 20Z" fill="#373737"/>
</svg>
